<svg width="1412.021973" height="1007.056152" viewBox="0 0 1412.02 1007.06" fill="none" xmlns="http://www.w3.org/2000/svg" xmlns:xlink="http://www.w3.org/1999/xlink">
	<desc>
			Created with Pixso.
	</desc>
	<defs>
		<linearGradient x1="1015.025085" y1="0.000214" x2="386.231445" y2="627.973511" id="paint_linear_2_100_0" gradientUnits="userSpaceOnUse">
			<stop stop-color="#69B4F4"/>
			<stop offset="1.000000" stop-color="#B1EAF3"/>
		</linearGradient>
		<linearGradient x1="1211.105469" y1="183.560303" x2="454.989868" y2="1007.056213" id="paint_linear_2_101_0" gradientUnits="userSpaceOnUse">
			<stop stop-color="#69B4F4"/>
			<stop offset="1.000000" stop-color="#B1EAF3"/>
		</linearGradient>
		<linearGradient x1="1174.980469" y1="265.189728" x2="701.275574" y2="759.160095" id="paint_linear_2_102_0" gradientUnits="userSpaceOnUse">
			<stop stop-color="#69B4F4"/>
			<stop offset="1.000000" stop-color="#B1EAF3"/>
		</linearGradient>
		<linearGradient x1="810.673157" y1="333.114563" x2="619.738098" y2="450.544373" id="paint_linear_2_103_0" gradientUnits="userSpaceOnUse">
			<stop stop-color="#69B4F4"/>
			<stop offset="1.000000" stop-color="#B1EAF3"/>
		</linearGradient>
		<linearGradient x1="124.674255" y1="563.521179" x2="24.815998" y2="717.745789" id="paint_linear_2_104_0" gradientUnits="userSpaceOnUse">
			<stop stop-color="#69B4F4"/>
			<stop offset="1.000000" stop-color="#B1EAF3"/>
		</linearGradient>
		<linearGradient x1="488.725464" y1="586.346802" x2="127.935318" y2="811.973511" id="paint_linear_2_105_0" gradientUnits="userSpaceOnUse">
			<stop stop-color="#69B4F4"/>
			<stop offset="1.000000" stop-color="#B1EAF3"/>
		</linearGradient>
		<linearGradient x1="616.693481" y1="693.906799" x2="572.455444" y2="762.040100" id="paint_linear_2_106_0" gradientUnits="userSpaceOnUse">
			<stop stop-color="#69B4F4"/>
			<stop offset="1.000000" stop-color="#B1EAF3"/>
		</linearGradient>
	</defs>
	<path id="path" d="M723.91 2.18C745.16 0 766.58 0.26 787.94 0C827.47 0.06 867 -0.09 906.52 0.73C998.35 1.02 1090.21 0.44 1182.02 1.3C1182.32 4.57 1181.78 7.82 1181.1 11.01C1179.41 20.85 1177.62 30.68 1175.78 40.49C1175.01 48.1 1173.25 55.56 1171.76 63.04C1171.43 65.8 1171.12 68.56 1170.46 71.25C1169.34 78.32 1167.77 85.3 1166.38 92.3C1166.04 94.62 1165.76 96.93 1165.44 99.25C1161.86 116.49 1159.28 133.93 1156.02 151.21C1155.44 153.38 1154.96 155.57 1154.42 157.74C1154.16 161.96 1153.17 166.06 1152.22 170.16C1027.65 170.84 903.07 170.04 778.51 170.2C766.12 170 753.88 172.21 741.52 172.36C729.63 173.82 717.63 174.73 705.94 177.46C695.46 179.5 684.88 181.22 674.79 184.8C659.26 189.42 644.04 195.14 629.42 202.1C623.64 205.22 617.82 208.22 612.12 211.49C593.18 223.01 575.18 236.37 559.83 252.46C533.35 279.5 513.36 312.34 498.55 347.04C482.96 387.74 471.82 430.36 467.83 473.82C465.36 488.88 464.26 504.09 464.26 519.36C463.64 519.46 462.42 519.68 461.8 519.78C461.95 521.48 461.23 523.93 463.2 524.78C462.98 536.78 462.86 548.78 462.55 560.78C462.27 564.58 457.47 564.58 454.78 565.81C438.54 570.42 422.54 575.71 406.34 580.49C394.47 583.92 382.74 587.82 370.88 591.3C349.44 596.94 328.43 604.18 306.84 609.3C283.24 616.03 259.59 622.64 235.62 627.97C233.55 626.62 233.76 624 233.32 621.89C231.16 609.13 231.43 596.17 230.9 583.29C228.66 556.26 231.07 529.18 231.76 502.14C233.7 489.14 234.51 476.02 236 462.98C237.38 453.84 239.02 444.73 240.03 435.54C249.62 377.92 265.95 321.06 291.87 268.54C310.3 229.92 334.4 194.04 362.6 161.88C393.64 127.01 430.5 97.61 470.44 73.6C480.79 67.26 491.42 61.38 502.36 56.17C505.51 54.46 508.74 52.92 512.03 51.48C516.06 49.72 519.99 47.69 524.06 46C533.12 42.02 542.36 38.43 551.68 35.09C557.15 33.58 562.31 31.21 567.76 29.65C573.52 27.82 579.26 25.85 585.19 24.61C599.62 20.22 614.4 17.17 629.1 13.81C649.63 8.77 670.76 7.08 691.64 4.14C696.12 3.9 700.67 4.01 705.06 2.91C711.32 2.34 717.62 2.37 723.91 2.18ZM316.23 417.78C316.6 427.06 318.02 436.5 315.72 445.66C315.47 447.54 315.24 449.44 315.02 451.33C312.11 459.06 308.3 466.6 302.58 472.64C295.06 480.89 284.79 485.72 275.04 490.77C272.9 491.65 272.04 493.65 271.79 495.85C276.71 496.24 281.64 496.05 286.59 496.05C294.4 495.77 302.02 497.98 309.38 500.38C316.96 503.2 324.15 507.33 329.87 513.12C338.22 520.76 343.58 530.93 348.75 540.82C349.56 542.3 350.67 543.53 352.08 544.5C355.11 538.09 352.07 531.22 352.91 524.54C353.8 518.28 353.4 511.76 356 505.85C358.92 496.16 364.75 487.6 371.96 480.56C378.87 473.25 388.12 468.96 396.66 463.9C396.7 463.17 396.78 461.69 396.82 460.96C382.8 461.34 368.11 463.36 354.86 457.57C338.24 450 328.44 433.82 320.2 418.34C319.22 418.21 317.23 417.93 316.23 417.78Z" fill="url(#paint_linear_2_100_0)" fill-opacity="1.000000" fill-rule="nonzero"/>
	<path id="path" d="M1388.94 185.5C1390.26 184.85 1391.58 184.2 1392.96 183.56C1392.5 183.92 1391.6 184.65 1391.16 185.01C1391.44 191.54 1391.04 198.09 1391.54 204.61C1391.78 208.72 1394.6 212.14 1397.92 214.34C1402.58 217.48 1407.1 220.88 1412.02 223.65C1409.06 223.61 1406.22 223.56 1403.32 223.48C1402.57 228.76 1404.72 233.84 1404.21 239.09C1402.96 245.33 1401.94 251.62 1400.34 257.78C1398.52 260.73 1397.02 263.86 1395.65 267.04C1389.97 277.81 1382.3 287.35 1374.38 296.54C1365.17 308.5 1353.81 318.54 1343.17 329.18C1322.88 349.56 1299.5 366.38 1277.48 384.77C1270.9 390.41 1263.53 394.97 1256.66 400.22C1233.69 418.05 1209.53 434.18 1185.29 450.21C1181.38 452.74 1177.1 454.97 1174.16 458.66C1171.44 462.16 1171.42 466.74 1170.41 470.86C1169.73 478.57 1167.68 486.08 1166.4 493.72C1165.3 504.09 1163.69 514.41 1161.93 524.69C1159.88 535.29 1159.28 546.12 1156.97 556.68C1154.88 576.73 1150.32 596.44 1148.56 616.56C1143.38 644.85 1140.8 673.54 1135.56 701.84C1133.44 721.45 1129.6 740.78 1126.97 760.33C1123.88 781.74 1120.19 803.08 1117.07 824.48C1116.31 833.9 1113.74 843.06 1112.68 852.45C1111.43 867.01 1108.46 881.36 1106.73 895.86C1105.13 904.49 1104.56 913.33 1102.12 921.8C1101.52 923.48 1100.93 925.46 1099.21 926.36C1092.84 930.04 1085.62 931.84 1078.77 934.34C1051.68 945.17 1023.84 953.93 995.9 962.28C979.58 966.89 962.98 970.45 946.71 975.3C928.35 978.92 910.4 984.53 891.86 987.22C874.74 991.44 857.19 993.1 839.92 996.53C817.9 1000.39 795.6 1002.13 773.32 1003.8C764.06 1005.32 754.63 1004.76 745.34 1006C731.11 1007.57 716.78 1006.85 702.5 1007.05C688.35 1006.85 674.11 1007.68 660.06 1005.63C646.18 1004.79 632.31 1003.88 618.5 1002.25C597.15 1000.31 576.23 995.34 555.16 991.49C542.86 988.33 530.38 985.9 518.32 981.89C502.6 977.13 487.11 971.64 471.84 965.62C453.34 957.61 435.31 948.49 417.86 938.4C402.66 929.02 388.1 918.61 374.02 907.62C329.36 870.98 293.84 823.34 271.23 770.2C269.48 766.12 267.03 762.14 267.08 757.56C278.58 752.81 290.94 751.2 302.79 747.66C332.64 740.1 362.1 731.12 391.74 722.81C416.84 715.17 441.92 707.49 466.78 699.05C471.3 697.88 475.56 695.86 480.15 695C483.08 695.93 483.99 699.24 485.35 701.68C496.6 726.53 512.94 748.9 532.48 767.88C548.64 784.22 567.54 798.12 588.5 807.66C606.31 815.2 624.16 823.09 643.22 827C675.23 834.74 708.26 838.05 741.19 837.22C752.75 837.65 764.15 835.5 775.68 835.08C787.86 834.73 799.86 832.34 811.92 830.86C824.27 828.25 836.83 826.74 849.07 823.61C858.91 821.36 868.88 819.68 878.47 816.42C884.34 814.81 890.14 812.9 895.9 810.93C902.16 809.32 908.46 807.28 913.9 803.68C915.75 797.85 915.62 791.66 917.12 785.77C919.36 776.17 919.86 766.28 922.2 756.7C923.71 750.94 923.82 744.94 925.3 739.18C926.64 725.97 929.9 713.06 931.74 699.92C934.5 688.29 935.27 676.33 938.03 664.7C939.86 655.36 941.86 646.01 942.82 636.52C945.76 620.08 949.15 603.69 951.3 587.12C952.38 582.06 952.3 575.73 957.44 572.86C968.91 566.29 980.9 560.65 992.62 554.53C1040.32 528.93 1087.85 502.92 1134.22 474.96C1146.36 467.52 1158.26 459.73 1170.38 452.29C1186.48 441.8 1202.49 431.18 1218.24 420.17C1238.43 405.94 1258.52 391.49 1277.98 376.24C1285.84 370.8 1292.49 363.84 1300.31 358.33C1311.01 349.5 1321.25 340.12 1331.81 331.13C1345.45 317.68 1359.94 304.89 1371.44 289.48C1374.65 285.2 1378.26 281.21 1381.14 276.68C1382.42 274.79 1383.72 272.9 1385 271.01C1387.85 266.38 1390.89 261.81 1392.84 256.7C1393.94 254.42 1394.9 252.08 1395.85 249.72C1396.48 244.8 1396.4 239.84 1396.3 234.9C1394.77 231.4 1393.68 226.58 1389.28 225.76C1380.52 224.7 1373.9 231.6 1368.65 237.6L1368.61 238.28C1367.6 239.05 1366.62 239.85 1365.66 240.66C1365.56 237.46 1365.26 234.06 1366.94 231.18C1367.45 226.12 1365.44 221.34 1363.92 216.64C1361.61 213.26 1359.54 209.72 1356.9 206.6C1345.96 202.1 1334.08 202.56 1322.53 201.52C1315.4 201.36 1308.25 201.3 1301.14 201.64C1290.5 202.85 1279.74 202.1 1269.16 203.77C1248.9 205.22 1228.69 207.45 1208.68 210.92L1207.89 211.56C1202.78 211.78 1197.68 212.24 1192.68 213.18C1191.97 211.17 1192.26 209.05 1192.42 207C1218.41 201.08 1245.14 199.61 1271.5 196.06C1284.06 195.52 1296.65 196 1309.18 194.94C1319.86 194.37 1330.49 195.73 1341.17 195.88C1349.22 197.3 1357.58 197.7 1365.22 200.94C1367.98 201.2 1370.89 201.77 1373.65 201C1380.06 197.4 1385.12 191.7 1388.94 185.5Z" fill="url(#paint_linear_2_101_0)" fill-opacity="1.000000" fill-rule="nonzero"/>
	<path id="path" d="M1210.66 266.07C1219.42 264.93 1228.43 264.86 1237.21 266.04C1250.31 266.16 1263.17 268.82 1276.07 270.85C1283.76 273.26 1292.21 275.2 1298.14 281.02C1302.42 285.33 1300.81 291.85 1298.92 296.88C1293.56 310.07 1284.64 321.37 1275.62 332.22C1260.24 350.2 1242.43 366 1223.31 379.9C1190.89 404.24 1154.48 422.56 1117.89 439.68C1094.04 451.38 1069.62 461.89 1045.34 472.64C1028.66 480.6 1011.7 487.96 994.79 495.44C993.52 495.64 992.27 495.86 991.04 496.12C999.54 483 1006.74 469.12 1015.06 455.9C1018.85 449 1023.36 442.49 1026.96 435.48C1028.81 430.98 1030.3 424.85 1026.16 421.16C1024.46 420.92 1022.77 421.1 1021.1 421.17C1007.06 446.36 989.36 469.18 974.14 493.64C960.34 513.98 946.24 534.13 932.82 554.71C900.9 600.38 870.91 647.37 838.76 692.88C832.71 701.38 827.94 711.04 819.9 717.93C813.7 722.48 806.18 724.58 799.38 728C785.92 734.5 772.03 739.98 758.42 746.09C757.76 746.3 756.46 746.74 755.8 746.97C751.5 749.01 747.16 751 742.74 752.77C737.1 755.01 732 759 725.7 759.16C727.74 748.76 732.02 739 735.03 728.89C750.26 679.8 765.9 630.82 780.92 581.66C784.27 571.54 787.15 561.28 790.51 551.15C793.44 541.78 795.12 531.86 799.84 523.15C803.92 521.06 807.94 518.81 812 516.69C821.32 512.08 830.96 508.16 840.47 503.93C851.8 498.7 862.94 493.04 874.51 488.36C884.8 483.65 894.88 478.5 905.14 473.72C914.48 468.7 924.51 465.08 933.95 460.25C946.83 453.65 960.48 448.72 973.36 442.14C984.92 435.76 996.99 430.38 1009.12 425.2C1012.49 423.3 1017.26 421.73 1017.45 417.17C1011.8 417.22 1006.66 419.78 1001.38 421.44C990.52 425.93 979.71 430.52 968.82 434.88C957.15 438.7 946.08 444.05 934.64 448.42C919.54 454.18 904.62 460.46 889.47 466.1C878.79 470.68 868.08 475.18 857.14 479.05C843.87 484.53 830.35 489.34 817.3 495.29C806.63 500.02 795.52 503.69 784.91 508.5C778.95 511.12 776.03 517.32 774.75 523.34C770.12 538.93 766.79 554.89 761.6 570.3C760.06 576.14 754.03 578.22 749.04 580.26C735.46 585.56 722.2 592.1 707.84 595.06C696.59 593.69 689.84 583.12 679.99 578.85C665.8 581.4 652.27 586.64 638.38 590.41C630.02 592.86 621.38 594.13 612.99 596.48C609.03 597.62 604.84 597.52 600.79 597.17C603.1 594.76 606.15 593.44 609.28 592.44C623.75 586.56 637.24 578.64 651.35 571.98C657.19 569.05 663.82 566.89 668.32 561.94C669.27 558.36 667.74 554.78 666.34 551.56C664.98 548.88 664.03 545.65 661.27 544.08C654.71 544.52 648.75 547.73 642.56 549.73C629.72 555.29 616.44 559.77 603.68 565.53C597.03 568.4 590.63 572 583.55 573.73C586.19 568.78 591.7 566.62 596.12 563.61C617.83 550.89 639.9 538.8 661.66 526.17C664.71 524.54 665.2 520.92 665.94 517.9C668.14 509.36 669.14 499.96 674.94 492.89C680.51 487.28 688.32 484.89 695.18 481.29C703.54 477.4 711.43 472.6 719.87 468.86C731.5 463.61 742.76 457.61 754.39 452.34C776.64 441.85 798.35 430.2 820.63 419.73C835.6 412.66 850.46 405.33 865.36 398.14C874 393.25 883.28 389.68 892.08 385.09C900.82 380.81 909.47 376.32 918.3 372.22C921.07 370.97 923.82 369.68 926.54 368.29C943.6 359.4 961.46 352.16 978.44 343.12C991.46 336.98 1004.21 330.34 1017.26 324.3C1036.89 315.12 1056.06 304.92 1076.14 296.72C1089.57 291.06 1103.16 285.45 1117.37 282.04C1124.38 279.88 1131.57 278.42 1138.64 276.44C1147.64 275.34 1156.17 271.89 1165.25 271.38C1180.29 268.92 1195.38 266.33 1210.66 266.07ZM1137.81 294.14C1130.46 296.74 1122.42 298.35 1116.26 303.41C1112.14 306.98 1114.32 313.06 1116.34 317.22C1120.88 326.18 1125.49 335.37 1132.42 342.76C1133.96 342.77 1135.52 342.78 1137.09 342.78C1146.64 338.29 1156 333.41 1165.56 328.94C1169.38 327 1173.24 325.09 1177.14 323.29C1178.92 322.28 1180.73 321.32 1182.53 320.3C1191.14 316.29 1199.53 311.77 1208.1 307.66C1209.78 306.2 1212.56 304.4 1211.06 301.84C1205.16 294.42 1195.18 292.56 1186.69 289.56C1170.38 286.05 1153.34 288.56 1137.81 294.14ZM1078.46 329.3C1074.61 331.78 1071.22 335.56 1072 340.5C1071 347.98 1077.78 355.26 1085.28 354.57C1090.72 353.65 1095.41 349.94 1097.68 344.92C1097.65 342.52 1097.65 340.13 1097.66 337.73C1095.64 334.25 1092.98 331.18 1089.41 329.26C1085.76 329.04 1082.1 329.05 1078.46 329.3Z" fill="url(#paint_linear_2_102_0)" fill-opacity="1.000000" fill-rule="nonzero"/>
	<path id="path" d="M639.07 335.46C646.23 331.21 654.83 333.7 662.4 335.36C672.84 336.56 682.83 340.25 693.3 341.36C724.68 348.58 756.34 354.52 787.67 361.97C793.5 362.56 799.07 364.42 804.75 365.78C813.86 367.17 822.82 369.36 831.8 371.36C841.84 372.5 851.64 375.22 861.4 377.78C851.88 384.52 840.72 388.28 830.43 393.6C793.74 411.74 756.6 429.02 720 447.41C715.36 449.54 709.88 452.28 705.03 449.08C681.91 436.78 659.75 422.76 636.96 409.86C615.3 397.54 594.24 384.2 572.62 371.86C572.44 370.77 572.34 369.68 572.28 368.58C587.76 361.17 603.02 353.25 618.36 345.53C625.28 342.24 632.3 339.09 639.07 335.46Z" fill="url(#paint_linear_2_103_0)" fill-opacity="1.000000" fill-rule="nonzero"/>
	<path id="path" d="M146.52 563.96C149.2 562.33 150.12 565.62 151.2 567.34C148.04 572.65 141.87 574.34 136.84 577.26C118.06 587.34 100.36 599.26 82.48 610.85C75.67 615.08 69.44 620.14 63.14 625.09C55.72 631.49 47.39 636.78 40.54 643.84C29.72 654.68 18.14 665.33 11.36 679.33C8.56 685.22 8.24 693.17 12.56 698.44C18.72 704.64 27.79 706.62 36.14 707.77C49.56 709.9 63.36 708.66 76.66 711.74C76.62 712.65 76.55 714.46 76.51 715.38C74.2 716.34 71.91 717.62 69.32 717.5C54.06 718.13 38.51 717.72 23.64 713.92C16.34 711.42 8.14 709.09 3.26 702.65C-1.22 694.92 -0.9 684.89 3.08 677.04C10.27 661.4 22.12 648.34 35.5 637.73C42.99 630.36 51.79 624.56 59.99 618.03C72.34 609.49 84.04 600 97.02 592.38C113.5 582.86 129.06 571.66 146.52 563.96Z" fill="url(#paint_linear_2_104_0)" fill-opacity="1.000000" fill-rule="nonzero"/>
	<path id="path" d="M578.66 586.65C580.04 586.52 581.44 586.42 582.86 586.34C583.47 588.06 584.04 589.81 584.59 591.57C575.47 596.86 564.87 598.76 555.2 602.8C541.58 608.74 527.16 612.58 513.31 617.94C503.2 620.81 493.55 624.98 483.64 628.42C465.72 634.08 448.26 641.17 430.06 645.97C415.78 651.15 401.1 655.17 386.6 659.74C367.1 665.49 347.64 671.38 327.95 676.42C308.67 681.06 289.72 686.96 270.4 691.44C263.02 693.58 255.23 693.98 247.94 696.48C236.47 699.22 224.83 701.17 213.28 703.46C200.14 705.77 188.91 713.77 179.06 722.36C160.71 737.42 148.4 760.56 148.79 784.57C148.07 793.7 148.34 802.82 148.72 811.97C141.15 798.29 132.02 785.18 119.91 775.12C108.88 764.73 94.51 758.82 80.04 755C66.26 752.37 52.18 753.58 38.27 754.18C41.54 750.74 45.96 748.85 49.83 746.21C58.68 740.21 66.7 733.08 74.14 725.41C76.51 723.26 77.5 720.18 78.34 717.21L79.46 717.06C79.35 716.57 79.15 715.58 79.06 715.09C79.6 714.53 80.72 713.42 81.28 712.88C85.08 710.38 87.38 706.32 89.5 702.44C92.91 694.62 95.68 686.42 96.66 677.92C98.68 665.86 97 653.58 97.98 641.46C101.7 648.21 104.84 655.36 109.74 661.4C116.72 669.9 123.22 679.09 132.39 685.44C149.46 699.01 172.43 701.14 193.43 699.36C204.39 698.97 214.6 694.5 225.39 693.01C243.19 689.72 260.76 685.38 278.39 681.29C301.03 675.1 324.12 670.52 346.47 663.21C357.34 660.14 368.15 656.88 379.11 654.17C396.96 648.9 414.52 642.65 432.51 637.84C445.03 633.74 457.4 629.22 469.95 625.18C484.22 621.24 497.88 615.38 512.07 611.15C529.36 605.01 546.5 598.46 563.83 592.44C568.88 590.85 573.98 589.18 578.66 586.65Z" fill="url(#paint_linear_2_105_0)" fill-opacity="1.000000" fill-rule="nonzero"/>
	<path id="path" d="M590.03 693.9C594.67 701.57 599.84 709.34 607.62 714.17C613.96 717.68 621.06 720.04 628.34 720.44C628.36 720.97 628.42 722.05 628.44 722.6C622.84 725.5 617.8 729.5 613.8 734.38C608.46 741.38 605.4 749.73 602.86 758.08C602.32 759.38 601.82 760.7 601.32 762.04C596.71 752.94 590.44 743.89 580.88 739.52C574.91 736.22 568.06 735.44 561.46 734.33C568.28 730.18 575.46 726.09 580.58 719.82C586.39 712.4 588.67 703.05 590.03 693.9Z" fill="url(#paint_linear_2_106_0)" fill-opacity="1.000000" fill-rule="nonzero"/>
</svg>
